<svg width="40.000000" height="40.000000" viewBox="0 0 40 40" fill="none" xmlns="http://www.w3.org/2000/svg" xmlns:xlink="http://www.w3.org/1999/xlink">
	<desc>
			Created with Pixso.
	</desc>
	<defs>
		<clipPath id="clip8_77">
			<rect id="Стрелка вправо" width="40.000000" height="40.000000" fill="white" fill-opacity="0"/>
		</clipPath>
	</defs>
	<g clip-path="url(#clip8_77)">
		<path id="path" d="M5.02002 20.73L5 20.75C4.58008 20.75 4.25 20.42 4.25 20C4.25 19.58 4.58008 19.25 5 19.25L5.02002 19.27L5.02002 20.73ZM34.98 19.27L35 19.25C35.4199 19.25 35.75 19.58 35.75 20C35.75 20.42 35.4199 20.75 35 20.75L34.98 20.73L34.98 19.27Z" fill="#000000" fill-opacity="0" fill-rule="nonzero"/>
		<path id="path" d="M5 20L35 20" stroke="#9C27B0" stroke-opacity="1.000000" stroke-width="1.500000" stroke-linejoin="round" stroke-linecap="round"/>
		<path id="path" d="M24.498 10.5303L24.4697 10.5303C24.1729 10.2333 24.1729 9.76666 24.4697 9.46967C24.7666 9.17267 25.2334 9.17267 25.5303 9.46967L25.5303 9.49792L24.498 10.5303ZM25.5303 30.5021L25.5303 30.5303C25.2334 30.8273 24.7666 30.8273 24.4697 30.5303C24.1729 30.2333 24.1729 29.7667 24.4697 29.4697L24.498 29.4697L25.5303 30.5021Z" fill="#000000" fill-opacity="0" fill-rule="nonzero"/>
		<path id="path" d="M25 10L35 20L25 30" stroke="#9C27B0" stroke-opacity="1.000000" stroke-width="1.500000" stroke-linejoin="round" stroke-linecap="round"/>
	</g>
</svg>
