<svg width="40.000000" height="40.000000" viewBox="0 0 40 40" fill="none" xmlns="http://www.w3.org/2000/svg" xmlns:xlink="http://www.w3.org/1999/xlink">
	<desc>
			Created with Pixso.
	</desc>
	<defs>
		<clipPath id="clip10_170">
			<rect id="Стрелка вправо" width="40.000000" height="40.000000" fill="white" fill-opacity="0"/>
		</clipPath>
	</defs>
	<g clip-path="url(#clip10_170)">
		<path id="path" d="M5.02002 21.98L5 22C3.87988 22 3 21.12 3 20C3 18.88 3.87988 18 5 18L5.02002 18.02L5.02002 21.98ZM34.98 18.02L35 18C36.1201 18 37 18.88 37 20C37 21.12 36.1201 22 35 22L34.98 21.98L34.98 18.02Z" fill="#000000" fill-opacity="0" fill-rule="nonzero"/>
		<path id="path" d="M5 20L35 20" stroke="#007BFF" stroke-opacity="1.000000" stroke-width="4.000000" stroke-linejoin="round" stroke-linecap="round"/>
		<path id="path" d="M23.614 11.4142L23.5857 11.4142C22.7939 10.6223 22.7939 9.37775 23.5857 8.58582C24.3777 7.79382 25.6223 7.79382 26.4143 8.58582L26.4143 8.61407L23.614 11.4142ZM26.4143 31.3859L26.4143 31.4142C25.6223 32.2062 24.3777 32.2062 23.5857 31.4142C22.7939 30.6223 22.7939 29.3777 23.5857 28.5858L23.614 28.5858L26.4143 31.3859Z" fill="#000000" fill-opacity="0" fill-rule="nonzero"/>
		<path id="path" d="M25 10L35 20L25 30" stroke="#007BFF" stroke-opacity="1.000000" stroke-width="4.000000" stroke-linejoin="round" stroke-linecap="round"/>
	</g>
</svg>
