<svg width="40.000000" height="40.000000" viewBox="0 0 40 40" fill="none" xmlns="http://www.w3.org/2000/svg" xmlns:xlink="http://www.w3.org/1999/xlink">
	<desc>
			Created with Pixso.
	</desc>
	<defs>
		<clipPath id="clip8_73">
			<rect id="Телефонный разговор" width="40.000000" height="40.000000" fill="white" fill-opacity="0"/>
		</clipPath>
	</defs>
	<g clip-path="url(#clip8_73)">
		<path id="path" d="M35.541 17.2601L35.5581 17.2828C35.4961 17.6982 35.1211 17.9759 34.7056 17.914C34.29 17.8521 34.0127 17.477 34.0742 17.0616L34.0972 17.0448L35.541 17.2601ZM22.6235 5.57117L22.6064 5.59387C22.1914 5.65576 21.8164 5.37805 21.7544 4.96265C21.6924 4.54724 21.9702 4.17218 22.3857 4.11029L22.4082 4.12708L22.6235 5.57117Z" fill="#000000" fill-opacity="0" fill-rule="nonzero"/>
		<path id="path" d="M34.8164 17.1722C35.0269 15.759 34.958 14.3123 34.6089 12.9212C34.1484 11.0835 33.1992 9.3432 31.7622 7.90613C30.3252 6.46906 28.585 5.52008 26.7471 5.05933C25.356 4.71051 23.9092 4.64142 22.4961 4.85205" stroke="#9C27B0" stroke-opacity="1.000000" stroke-width="1.500000" stroke-linejoin="round" stroke-linecap="round"/>
		<path id="path" d="M29.2163 16.5908L29.2329 16.6135C29.1714 17.0289 28.7964 17.3066 28.3809 17.2448C27.9653 17.1828 27.6875 16.8078 27.7495 16.3923L27.7725 16.3755L29.2163 16.5908ZM22.9326 11.5358L22.9155 11.5585C22.5005 11.6204 22.1255 11.3427 22.0635 10.9272C22.0015 10.5118 22.2793 10.1368 22.6948 10.0749L22.7173 10.0917L22.9326 11.5358Z" fill="#000000" fill-opacity="0" fill-rule="nonzero"/>
		<path id="path" d="M28.4912 16.5029C28.7168 14.9891 28.2471 13.3916 27.082 12.2263C25.9165 11.0609 24.3188 10.591 22.8052 10.8167" stroke="#9C27B0" stroke-opacity="1.000000" stroke-width="1.500000" stroke-linejoin="round" stroke-linecap="round"/>
		<path id="path" d="M11.9795 7.32855C12.5854 7.32855 13.1431 7.65692 13.437 8.18628L15.4756 11.8586C15.7427 12.3394 15.7549 12.921 15.5093 13.413L13.5449 17.3409C13.5449 17.3409 14.1143 20.2672 16.4961 22.6492C18.8784 25.0312 21.7949 25.5905 21.7949 25.5905L25.7222 23.6268C26.2144 23.3807 26.7964 23.3934 27.2773 23.6609L30.96 25.7084C31.4888 26.0024 31.8169 26.5599 31.8169 27.165L31.8169 31.3929C31.8169 33.546 29.8169 35.1011 27.7769 34.4127C23.5869 32.999 17.083 30.3071 12.9609 26.1847C8.83838 22.0624 6.14648 15.5585 4.73291 11.3685C4.04443 9.32843 5.59961 7.32855 7.75244 7.32855L11.9795 7.32855Z" fill="#000000" fill-opacity="0" fill-rule="nonzero"/>
		<path id="path" d="M13.437 8.18628L15.4756 11.8586C15.7427 12.3394 15.7549 12.921 15.5093 13.413L13.5449 17.3409C13.5449 17.3409 14.1143 20.2672 16.4961 22.6492C18.8784 25.0312 21.7949 25.5905 21.7949 25.5905L25.7222 23.6268C26.2144 23.3807 26.7964 23.3934 27.2773 23.6609L30.96 25.7084C31.4888 26.0024 31.8169 26.5599 31.8169 27.165L31.8169 31.3929C31.8169 33.546 29.8169 35.1011 27.7769 34.4127C23.5869 32.999 17.083 30.3071 12.9609 26.1847C8.83838 22.0624 6.14648 15.5585 4.73291 11.3685C4.04443 9.32843 5.59961 7.32855 7.75244 7.32855L11.9795 7.32855C12.5854 7.32855 13.1431 7.65692 13.437 8.18628Z" stroke="#9C27B0" stroke-opacity="1.000000" stroke-width="1.500000" stroke-linejoin="round"/>
	</g>
</svg>
