<svg width="40.000000" height="40.000000" viewBox="0 0 40 40" fill="none" xmlns="http://www.w3.org/2000/svg" xmlns:xlink="http://www.w3.org/1999/xlink">
	<desc>
			Created with Pixso.
	</desc>
	<defs>
		<clipPath id="clip10_166">
			<rect id="Телефонный разговор" width="40.000000" height="40.000000" fill="white" fill-opacity="0"/>
		</clipPath>
	</defs>
	<g clip-path="url(#clip10_166)">
		<path id="path" d="M36.7776 17.4443L36.7944 17.4671C36.6292 18.5748 35.6292 19.3155 34.5215 19.1503C33.4136 18.9852 32.6731 17.985 32.8381 16.8773L32.8608 16.8605L36.7776 17.4443ZM22.8079 6.8075L22.791 6.8302C21.6831 6.99536 20.6831 6.2547 20.5181 5.14691C20.3528 4.03918 21.0935 3.03906 22.2012 2.8739L22.2239 2.89075L22.8079 6.8075Z" fill="#000000" fill-opacity="0" fill-rule="nonzero"/>
		<path id="path" d="M34.8162 17.1722C35.0269 15.759 34.9578 14.3123 34.6091 12.9212C34.1482 11.0835 33.1992 9.3432 31.7622 7.90613C30.3252 6.46906 28.5847 5.52008 26.7471 5.05933C25.3562 4.71051 23.9092 4.64142 22.4961 4.85205" stroke="#007BFF" stroke-opacity="1.000000" stroke-width="4.000000" stroke-linejoin="round" stroke-linecap="round"/>
		<path id="path" d="M30.4526 16.7751L30.4695 16.7978C30.3044 17.9056 29.3042 18.6462 28.1965 18.4811C27.0886 18.316 26.3481 17.3158 26.5132 16.2081L26.5359 16.1912L30.4526 16.7751ZM23.1169 12.7721L23.1001 12.7948C21.9924 12.96 20.9922 12.2194 20.8271 11.1116C20.6619 10.0038 21.4026 9.00366 22.5103 8.83856L22.533 8.85541L23.1169 12.7721Z" fill="#000000" fill-opacity="0" fill-rule="nonzero"/>
		<path id="path" d="M28.4915 16.5029C28.717 14.9891 28.2471 13.3916 27.0818 12.2263C25.9165 11.0609 24.3188 10.591 22.8052 10.8167" stroke="#007BFF" stroke-opacity="1.000000" stroke-width="4.000000" stroke-linejoin="round" stroke-linecap="round"/>
		<path id="path" d="M11.9797 7.32855C12.5852 7.32855 13.1431 7.65692 13.437 8.18628L15.4756 11.8586C15.7427 12.3394 15.7551 12.921 15.509 13.413L13.5452 17.3409C13.5452 17.3409 14.1143 20.2672 16.4963 22.6492C18.8784 25.0312 21.7947 25.5905 21.7947 25.5905L25.7222 23.6268C26.2144 23.3807 26.7964 23.3934 27.2773 23.6609L30.9602 25.7084C31.489 26.0024 31.8169 26.5599 31.8169 27.165L31.8169 31.3929C31.8169 33.546 29.8171 35.1011 27.7771 34.4127C23.5872 32.999 17.0833 30.3071 12.9609 26.1847C8.83838 22.0624 6.14648 15.5585 4.73267 11.3685C4.04443 9.32843 5.59961 7.32855 7.75244 7.32855L11.9797 7.32855Z" fill="#000000" fill-opacity="0" fill-rule="nonzero"/>
		<path id="path" d="M13.437 8.18628L15.4756 11.8586C15.7427 12.3394 15.7551 12.921 15.509 13.413L13.5452 17.3409C13.5452 17.3409 14.1143 20.2672 16.4963 22.6492C18.8784 25.0312 21.7947 25.5905 21.7947 25.5905L25.7222 23.6268C26.2144 23.3807 26.7964 23.3934 27.2773 23.6609L30.9602 25.7084C31.489 26.0024 31.8169 26.5599 31.8169 27.165L31.8169 31.3929C31.8169 33.546 29.8171 35.1011 27.7771 34.4127C23.5872 32.999 17.0833 30.3071 12.9609 26.1847C8.83838 22.0624 6.14648 15.5585 4.73267 11.3685C4.04443 9.32843 5.59961 7.32855 7.75244 7.32855L11.9797 7.32855C12.5852 7.32855 13.1431 7.65692 13.437 8.18628Z" stroke="#007BFF" stroke-opacity="1.000000" stroke-width="4.000000" stroke-linejoin="round"/>
	</g>
</svg>
