<svg width="40.000000" height="40.000000" viewBox="0 0 40 40" fill="none" xmlns="http://www.w3.org/2000/svg" xmlns:xlink="http://www.w3.org/1999/xlink">
	<desc>
			Created with Pixso.
	</desc>
	<defs>
		<clipPath id="clip10_161">
			<rect id="Файл изображения" width="40.000000" height="40.000000" fill="white" fill-opacity="0"/>
		</clipPath>
	</defs>
	<g clip-path="url(#clip10_161)">
		<path id="path" d="M8.3335 36.6667L31.6667 36.6667C32.5872 36.6667 33.3335 35.9205 33.3335 35L33.3335 11.6667L25 11.6667L25 3.33334L8.3335 3.33334C7.41284 3.33334 6.66675 4.07953 6.66675 5L6.66675 35C6.66675 35.9205 7.41284 36.6667 8.3335 36.6667Z" fill="#000000" fill-opacity="0" fill-rule="nonzero"/>
		<path id="path" d="M31.6667 36.6667C32.5872 36.6667 33.3335 35.9205 33.3335 35L33.3335 11.6667L25 11.6667L25 3.33334L8.3335 3.33334C7.41284 3.33334 6.66675 4.07953 6.66675 5L6.66675 35C6.66675 35.9205 7.41284 36.6667 8.3335 36.6667L31.6667 36.6667Z" stroke="#808080" stroke-opacity="1.000000" stroke-width="1.500000" stroke-linejoin="round"/>
		<path id="path" d="M24.498 3.86371L24.4697 3.86371C24.1726 3.56671 24.1726 3.10004 24.4697 2.80304C24.7666 2.50604 25.2334 2.50607 25.5303 2.80304L25.5303 2.83133L24.498 3.86371ZM33.8352 11.1364L33.8635 11.1364C34.1606 11.4334 34.1606 11.9001 33.8635 12.1971C33.5667 12.4941 33.0999 12.494 32.803 12.1971L32.803 12.1688L33.8352 11.1364Z" fill="#000000" fill-opacity="0" fill-rule="nonzero"/>
		<path id="path" d="M25 3.33337L33.3333 11.6667" stroke="#808080" stroke-opacity="1.000000" stroke-width="1.500000" stroke-linejoin="round" stroke-linecap="round"/>
		<circle id="circle" cx="15.000000" cy="14.166687" r="3.333333" fill="#000000" fill-opacity="0"/>
		<circle id="circle" cx="15.000000" cy="14.166687" r="3.333333" stroke="#808080" stroke-opacity="1.000000" stroke-width="1.500000" stroke-linejoin="round"/>
		<path id="path" d="M12.5 23.3333L12.5 30.8333L27.5 30.8333L27.5 17.5L19.5745 26.25L12.5 23.3333Z" fill="#000000" fill-opacity="0" fill-rule="nonzero"/>
		<path id="path" d="M12.5 30.8333L27.5 30.8333L27.5 17.5L19.5745 26.25L12.5 23.3333L12.5 30.8333Z" stroke="#808080" stroke-opacity="1.000000" stroke-width="1.500000" stroke-linejoin="round"/>
	</g>
</svg>
