<svg width="234.000000" height="88.000000" viewBox="0 0 234 88" fill="none" xmlns="http://www.w3.org/2000/svg" xmlns:xlink="http://www.w3.org/1999/xlink">
	<desc>
			Created with Pixso.
	</desc>
	<defs/>
	<rect id="Прямоугольник 2" x="1.000000" y="1.000000" rx="20.000000" width="212.000000" height="66.000000" fill="#333333" fill-opacity="1.000000"/>
	<rect id="Прямоугольник 2" x="1.000000" y="1.000000" rx="20.000000" width="212.000000" height="66.000000" stroke="#9C27B0" stroke-opacity="1.000000" stroke-width="2.000000"/>
	<rect id="Прямоугольник 2" x="11.000000" y="11.000000" rx="20.000000" width="212.000000" height="66.000000" fill="#333333" fill-opacity="1.000000"/>
	<rect id="Прямоугольник 2" x="11.000000" y="11.000000" rx="20.000000" width="212.000000" height="66.000000" stroke="#9C27B0" stroke-opacity="1.000000" stroke-width="2.000000"/>
	<rect id="Прямоугольник 2" x="21.000000" y="21.000000" rx="20.000000" width="212.000000" height="66.000000" fill="#333333" fill-opacity="1.000000"/>
	<rect id="Прямоугольник 2" x="21.000000" y="21.000000" rx="20.000000" width="212.000000" height="66.000000" stroke="#9C27B0" stroke-opacity="1.000000" stroke-width="2.000000"/>
	<path id="ChatUp" d="M101.001 50.5C100.351 46.9199 97.4913 44.8047 93.9757 44.8047C89.5108 44.8047 86.2706 48.25 86.2706 53.7754C86.2706 59.2949 89.5108 62.7402 93.9757 62.7402C97.4913 62.7402 100.351 60.625 101.001 57.0449L98.8858 57.0449C98.3761 59.4648 96.296 60.7598 93.9757 60.7598C90.8058 60.7598 88.3155 58.3047 88.3155 53.7754C88.3155 49.2402 90.8058 46.7852 93.9757 46.7852C96.296 46.7852 98.3761 48.0801 98.8858 50.5L101.001 50.5ZM106.145 54.625C106.145 52.3398 107.604 51.0449 109.59 51.0449C111.483 51.0449 112.626 52.2402 112.626 54.3203L112.626 62.5L114.635 62.5L114.635 54.1797C114.635 50.8164 112.848 49.2402 110.17 49.2402C108.108 49.2402 106.93 50.1016 106.321 51.4551L106.145 51.4551L106.145 45.0449L104.135 45.0449L104.135 62.5L106.145 62.5L106.145 54.625ZM122.173 62.8047C124.452 62.8047 125.647 61.5801 126.057 60.7246L126.157 60.7246L126.157 62.5L128.173 62.5L128.173 53.875C128.173 49.7148 125.003 49.2402 123.327 49.2402C121.352 49.2402 119.102 49.9199 118.077 52.3047L119.987 52.9902C120.432 52.0352 121.481 51.0098 123.397 51.0098C125.249 51.0098 126.157 51.9941 126.157 53.6699L126.157 53.7402C126.157 54.7129 125.173 54.625 122.782 54.9297C120.356 55.2461 117.702 55.7852 117.702 58.7852C117.702 61.3398 119.682 62.8047 122.173 62.8047ZM122.477 61C120.878 61 119.718 60.2852 119.718 58.8848C119.718 57.3496 121.112 56.875 122.682 56.6699C123.532 56.5703 125.817 56.3301 126.157 55.9199L126.157 57.7598C126.157 59.4004 124.862 61 122.477 61ZM137.547 49.4102L134.752 49.4102L134.752 46.2754L132.736 46.2754L132.736 49.4102L130.761 49.4102L130.761 51.1152L132.736 51.1152L132.736 59.2949C132.736 61.5801 134.582 62.6699 136.287 62.6699C137.037 62.6699 137.511 62.5352 137.787 62.4297L137.377 60.625C137.207 60.6602 136.931 60.7246 136.486 60.7246C135.601 60.7246 134.752 60.4551 134.752 58.75L134.752 51.1152L137.547 51.1152L137.547 49.4102ZM152.309 45.0449L152.309 56.4297C152.309 58.9902 150.551 60.8301 147.639 60.8301C144.721 60.8301 142.963 58.9902 142.963 56.4297L142.963 45.0449L140.854 45.0449L140.854 56.5996C140.854 60.1797 143.526 62.8047 147.639 62.8047C151.746 62.8047 154.418 60.1797 154.418 56.5996L154.418 45.0449L152.309 45.0449ZM158.374 67.4102L160.384 67.4102L160.384 60.4902L160.559 60.4902C160.999 61.2051 161.854 62.7754 164.374 62.7754C167.649 62.7754 169.934 60.1504 169.934 55.9902C169.934 51.8652 167.649 49.2402 164.339 49.2402C161.784 49.2402 160.999 50.8047 160.559 51.4902L160.319 51.4902L160.319 49.4102L158.374 49.4102L158.374 67.4102ZM160.354 55.9551C160.354 53.0254 161.649 51.0449 164.104 51.0449C166.659 51.0449 167.919 53.1953 167.919 55.9551C167.919 58.75 166.624 60.9648 164.104 60.9648C161.684 60.9648 160.354 58.9199 160.354 55.9551Z" fill="#FFFFFF" fill-opacity="1.000000" fill-rule="evenodd"/>
</svg>
