<svg width="40.000000" height="40.000000" viewBox="0 0 40 40" fill="none" xmlns="http://www.w3.org/2000/svg" xmlns:xlink="http://www.w3.org/1999/xlink">
	<desc>
			Created with Pixso.
	</desc>
	<defs>
		<clipPath id="clip10_75">
			<rect id="Развернуть меню" width="40.000000" height="40.000000" fill="white" fill-opacity="0"/>
		</clipPath>
	</defs>
	<g clip-path="url(#clip10_75)">
		<path id="path" d="M6.68677 11.1466L6.66675 11.1666C5.54675 11.1666 4.66675 10.2866 4.66675 9.16663C4.66675 8.04663 5.54675 7.16663 6.66675 7.16663L6.68677 7.18665L6.68677 11.1466ZM33.3135 7.18665L33.3335 7.16663C34.4535 7.16663 35.3335 8.04663 35.3335 9.16663C35.3335 10.2866 34.4535 11.1666 33.3335 11.1666L33.3135 11.1466L33.3135 7.18665Z" fill="#000000" fill-opacity="0" fill-rule="nonzero"/>
		<path id="path" d="M6.66675 9.16663L33.3335 9.16663" stroke="#007BFF" stroke-opacity="1.000000" stroke-width="4.000000" stroke-linejoin="round" stroke-linecap="round"/>
		<path id="path" d="M6.68677 21.98L6.66675 22C5.54675 22 4.66675 21.12 4.66675 20C4.66675 18.88 5.54675 18 6.66675 18L6.68677 18.02L6.68677 21.98ZM34.98 18.02L35 18C36.12 18 37 18.88 37 20C37 21.12 36.12 22 35 22L34.98 21.98L34.98 18.02Z" fill="#000000" fill-opacity="0" fill-rule="nonzero"/>
		<path id="path" d="M6.66675 20L35 20" stroke="#007BFF" stroke-opacity="1.000000" stroke-width="4.000000" stroke-linejoin="round" stroke-linecap="round"/>
		<path id="path" d="M6.68677 32.8134L6.66675 32.8334C5.54675 32.8334 4.66675 31.9534 4.66675 30.8334C4.66675 29.7134 5.54675 28.8334 6.66675 28.8334L6.68677 28.8534L6.68677 32.8134ZM33.3135 28.8534L33.3335 28.8334C34.4535 28.8334 35.3335 29.7134 35.3335 30.8334C35.3335 31.9534 34.4535 32.8334 33.3335 32.8334L33.3135 32.8134L33.3135 28.8534Z" fill="#000000" fill-opacity="0" fill-rule="nonzero"/>
		<path id="path" d="M6.66675 30.8334L33.3335 30.8334" stroke="#007BFF" stroke-opacity="1.000000" stroke-width="4.000000" stroke-linejoin="round" stroke-linecap="round"/>
		<path id="path" d="M31.7003 26.0999L31.7003 26.1282C30.9084 26.9202 29.6639 26.9202 28.8719 26.1282C28.08 25.3362 28.08 24.0917 28.8719 23.2998L28.9001 23.2998L31.7003 26.0999ZM28.9001 16.7L28.8719 16.7C28.08 15.9081 28.08 14.6636 28.8719 13.8716C29.6639 13.0797 30.9084 13.0797 31.7003 13.8716L31.7003 13.8999L28.9001 16.7Z" fill="#000000" fill-opacity="0" fill-rule="nonzero"/>
		<path id="path" d="M30.2861 24.714L35.0001 19.9999L30.2861 15.2858" stroke="#007BFF" stroke-opacity="1.000000" stroke-width="4.000000" stroke-linejoin="round" stroke-linecap="round"/>
	</g>
</svg>
