<svg width="40.000000" height="40.000000" viewBox="0 0 40 40" fill="none" xmlns="http://www.w3.org/2000/svg" xmlns:xlink="http://www.w3.org/1999/xlink">
	<desc>
			Created with Pixso.
	</desc>
	<defs>
		<clipPath id="clip8_19">
			<rect id="Поиск" width="40.000000" height="40.000000" fill="white" fill-opacity="0"/>
		</clipPath>
	</defs>
	<g clip-path="url(#clip8_19)">
		<path id="path" d="M17.5 31.6666C25.324 31.6666 31.6665 25.324 31.6665 17.5C31.6665 9.67596 25.324 3.33331 17.5 3.33331C9.67603 3.33331 3.33325 9.67596 3.33325 17.5C3.33325 25.324 9.67603 31.6666 17.5 31.6666Z" fill="#000000" fill-opacity="0" fill-rule="nonzero"/>
		<path id="path" d="M31.6665 17.5C31.6665 9.67596 25.324 3.33331 17.5 3.33331C9.67603 3.33331 3.33325 9.67596 3.33325 17.5C3.33325 25.324 9.67603 31.6666 17.5 31.6666C25.324 31.6666 31.6665 25.324 31.6665 17.5Z" stroke="#9C27B0" stroke-opacity="1.000000" stroke-width="1.500000" stroke-linejoin="round"/>
		<path id="path" d="M22.7163 11.4222L22.7446 11.4222C23.0415 11.7192 23.0415 12.1859 22.7446 12.4829C22.4475 12.7799 21.981 12.7799 21.6838 12.4829L21.6838 12.4547L22.7163 11.4222ZM13.3164 12.4547L13.3164 12.4829C13.0195 12.7799 12.5527 12.7799 12.2559 12.4829C11.9587 12.1859 11.9587 11.7192 12.2559 11.4222L12.2842 11.4222L13.3164 12.4547Z" fill="#000000" fill-opacity="0" fill-rule="nonzero"/>
		<path id="path" d="M22.2141 11.9526C21.0078 10.7462 19.3411 10 17.5002 10C15.6592 10 13.9924 10.7462 12.7861 11.9526" stroke="#9C27B0" stroke-opacity="1.000000" stroke-width="1.500000" stroke-linejoin="round" stroke-linecap="round"/>
		<path id="path" d="M27.1826 28.215L27.1543 28.215C26.8572 27.918 26.8572 27.4514 27.1543 27.1544C27.4512 26.8574 27.918 26.8574 28.2148 27.1544L28.2148 27.1826L27.1826 28.215ZM35.2578 34.2255L35.2861 34.2255C35.5833 34.5225 35.5833 34.9891 35.2861 35.2861C34.9893 35.5831 34.5225 35.5831 34.2256 35.2861L34.2256 35.2579L35.2578 34.2255Z" fill="#000000" fill-opacity="0" fill-rule="nonzero"/>
		<path id="path" d="M27.6846 27.6847L34.7559 34.7558" stroke="#9C27B0" stroke-opacity="1.000000" stroke-width="1.500000" stroke-linejoin="round" stroke-linecap="round"/>
	</g>
</svg>
