<svg width="40.000000" height="40.000000" viewBox="0 0 40 40" fill="none" xmlns="http://www.w3.org/2000/svg" xmlns:xlink="http://www.w3.org/1999/xlink">
	<desc>
			Created with Pixso.
	</desc>
	<defs>
		<clipPath id="clip10_80">
			<rect id="Поиск" width="40.000000" height="40.000000" fill="white" fill-opacity="0"/>
		</clipPath>
	</defs>
	<g clip-path="url(#clip10_80)">
		<path id="path" d="M17.4999 31.6666C25.324 31.6666 31.6666 25.324 31.6666 17.5C31.6666 9.67596 25.324 3.33331 17.4999 3.33331C9.6759 3.33331 3.33325 9.67596 3.33325 17.5C3.33325 25.324 9.6759 31.6666 17.4999 31.6666Z" fill="#000000" fill-opacity="0" fill-rule="nonzero"/>
		<path id="path" d="M31.6666 17.5C31.6666 9.67596 25.324 3.33331 17.4999 3.33331C9.6759 3.33331 3.33325 9.67596 3.33325 17.5C3.33325 25.324 9.6759 31.6666 17.4999 31.6666C25.324 31.6666 31.6666 25.324 31.6666 17.5Z" stroke="#007BFF" stroke-opacity="1.000000" stroke-width="4.000000" stroke-linejoin="round"/>
		<path id="path" d="M23.6001 10.5384L23.6284 10.5384C24.4204 11.3303 24.4204 12.5748 23.6284 13.3668C22.8364 14.1588 21.5919 14.1588 20.8 13.3668L20.8 13.3385L23.6001 10.5384ZM14.2003 13.3385L14.2003 13.3668C13.4084 14.1588 12.1638 14.1588 11.3719 13.3668C10.58 12.5748 10.58 11.3303 11.3719 10.5384L11.4001 10.5384L14.2003 13.3385Z" fill="#000000" fill-opacity="0" fill-rule="nonzero"/>
		<path id="path" d="M22.2142 11.9526C21.0078 10.7462 19.3412 10 17.5001 10C15.6592 10 13.9926 10.7462 12.7861 11.9526" stroke="#007BFF" stroke-opacity="1.000000" stroke-width="4.000000" stroke-linejoin="round" stroke-linecap="round"/>
		<path id="path" d="M26.2987 29.0989L26.2704 29.0989C25.4784 28.3069 25.4784 27.0624 26.2704 26.2705C27.0623 25.4785 28.3068 25.4785 29.0988 26.2704L29.0988 26.2988L26.2987 29.0989ZM36.1417 33.3416L36.17 33.3416C36.962 34.1335 36.962 35.3781 36.17 36.17C35.3782 36.962 34.1337 36.962 33.3417 36.17L33.3417 36.1417L36.1417 33.3416Z" fill="#000000" fill-opacity="0" fill-rule="nonzero"/>
		<path id="path" d="M27.6846 27.6847L34.7559 34.7558" stroke="#007BFF" stroke-opacity="1.000000" stroke-width="4.000000" stroke-linejoin="round" stroke-linecap="round"/>
	</g>
</svg>
