<svg width="40.000000" height="40.000000" viewBox="0 0 40 40" fill="none" xmlns="http://www.w3.org/2000/svg" xmlns:xlink="http://www.w3.org/1999/xlink">
	<desc>
			Created with Pixso.
	</desc>
	<defs>
		<clipPath id="clip10_21">
			<rect id="Отправить" width="40.000000" height="40.000000" fill="white" fill-opacity="0"/>
		</clipPath>
	</defs>
	<g clip-path="url(#clip10_21)">
		<path id="path" d="M35.8335 4.16675L24.75 35.8334L18.4167 21.5834L4.16675 15.2501L35.8335 4.16675Z" fill="#000000" fill-opacity="0" fill-rule="nonzero"/>
		<path id="path" d="M24.75 35.8334L18.4167 21.5834L4.16675 15.2501L35.8335 4.16675L24.75 35.8334Z" stroke="#007BFF" stroke-opacity="1.000000" stroke-width="4.000000" stroke-linejoin="round"/>
		<path id="path" d="M19.8308 22.9691L19.8308 22.9974C19.0388 23.7894 17.7942 23.7894 17.0022 22.9974C16.2104 22.2056 16.2104 20.9611 17.0022 20.1691L17.0305 20.1691L19.8308 22.9691ZM34.4187 2.78076L34.4187 2.75244C35.2107 1.96045 36.4553 1.96045 37.2473 2.75244C38.0391 3.54431 38.0391 4.78882 37.2473 5.58081L37.219 5.58081L34.4187 2.78076Z" fill="#000000" fill-opacity="0" fill-rule="nonzero"/>
		<path id="path" d="M18.4165 21.5833L35.833 4.16663" stroke="#007BFF" stroke-opacity="1.000000" stroke-width="4.000000" stroke-linejoin="round" stroke-linecap="round"/>
	</g>
</svg>
